<svg xmlns="http://www.w3.org/2000/svg" viewBox="0 0 800 600" role="img" aria-label="診療室の写真(プレースホルダー)">
  <defs>
    <linearGradient id="bg" x1="0" y1="0" x2="1" y2="1">
      <stop offset="0" stop-color="#f4f9fd"/>
      <stop offset="1" stop-color="#dcebf7"/>
    </linearGradient>
  </defs>
  <rect width="800" height="600" fill="url(#bg)"/>
  <circle cx="670" cy="120" r="120" fill="#eaf3fa" opacity="0.8"/>
  <circle cx="110" cy="500" r="100" fill="#eaf3fa" opacity="0.8"/>

  <!-- 診療チェアとライト -->
  <g fill="none" stroke="#1e4e79" stroke-width="10" stroke-linecap="round" stroke-linejoin="round">
    <path d="M280 220h110a24 24 0 0124 24v50a24 24 0 01-24 24h-60"/>
    <path d="M330 318l120 30h60a22 22 0 010 44H330a40 40 0 01-40-40v-132"/>
    <path d="M400 392v40M470 392v40M360 432h150"/>
    <path d="M520 170l40 40" stroke="#8fbfe0"/>
    <circle cx="545" cy="145" r="34" stroke="#8fbfe0"/>
  </g>

  <text x="400" y="500" text-anchor="middle" font-family="'Noto Sans JP', sans-serif" font-size="28" font-weight="bold" fill="#1e4e79">診療室</text>
  <text x="400" y="532" text-anchor="middle" font-family="'Montserrat', sans-serif" font-size="14" letter-spacing="3" fill="#6b7885">TREATMENT ROOM</text>
</svg>
