<svg xmlns="http://www.w3.org/2000/svg" viewBox="0 0 800 600" role="img" aria-label="歯磨き指導を受ける子供のイラスト">
  <defs><linearGradient id="bg" x1="0" y1="0" x2="1" y2="1"><stop offset="0" stop-color="#eaf3fa"/><stop offset="1" stop-color="#dcebf7"/></linearGradient></defs>
  <rect width="800" height="600" fill="url(#bg)"/>
  <circle cx="130" cy="120" r="100" fill="#f4f9fd" opacity="0.9"/>
  <g fill="none" stroke="#1e4e79" stroke-width="12" stroke-linecap="round" stroke-linejoin="round">
    <circle cx="280" cy="330" r="60"/>
    <path d="M205 480q75-75 150 0"/>
    <path d="M255 350q25 20 50 0" stroke="#8fbfe0"/>
    <path d="M470 400c-30 0-30-40-56-40"/>
    <path d="M500 170c-40 0-66 26-66 58 0 21 8 34 13 50s5 44 17 54c7 5.6 15.5 1.7 17-8 1.5-10 2.3-26 13-26s11.5 16 13 26c1.5 9.7 10 13.6 17 8 12-10 12-38 17-54s13-29 13-50c0-32-26-58-66-58z"/>
  </g>
  <g fill="none" stroke="#8fbfe0" stroke-width="10" stroke-linecap="round" stroke-linejoin="round">
    <path d="M430 480l120-30"/>
    <rect x="550" y="426" width="80" height="30" rx="15" transform="rotate(-14 590 441)"/>
  </g>
</svg>
