<svg xmlns="http://www.w3.org/2000/svg" viewBox="0 0 800 600" role="img" aria-label="親子で来院する様子のイラスト">
  <defs><linearGradient id="bg" x1="0" y1="0" x2="1" y2="1"><stop offset="0" stop-color="#eaf3fa"/><stop offset="1" stop-color="#f4f9fd"/></linearGradient></defs>
  <rect width="800" height="600" fill="url(#bg)"/>
  <circle cx="130" cy="470" r="100" fill="#dcebf7" opacity="0.7"/>
  <g fill="none" stroke="#1e4e79" stroke-width="12" stroke-linecap="round" stroke-linejoin="round">
    <circle cx="300" cy="230" r="75"/>
    <path d="M205 420q95-90 190 0"/>
    <circle cx="520" cy="320" r="55"/>
    <path d="M450 460q70-65 140 0"/>
    <path d="M275 260q25 20 50 0M498 345q22 18 44 0" stroke="#8fbfe0"/>
    <path d="M380 370l60-20"/>
  </g>
  <path d="M620 160c-14 0-22 10-22 20 0 16 22 30 22 30s22-14 22-30c0-10-8-20-22-20z" fill="#8fbfe0"/>
  <path d="M180 150c-10 0-16 7-16 15 0 12 16 22 16 22s16-10 16-22c0-8-6-15-16-15z" fill="#bcd8ec"/>
</svg>
