<svg xmlns="http://www.w3.org/2000/svg" viewBox="0 0 800 600" role="img" aria-label="先生とカウンセリングをする様子のイラスト">
  <defs><linearGradient id="bg" x1="0" y1="0" x2="1" y2="1"><stop offset="0" stop-color="#eaf3fa"/><stop offset="1" stop-color="#e3f0f9"/></linearGradient></defs>
  <rect width="800" height="600" fill="url(#bg)"/>
  <circle cx="120" cy="500" r="100" fill="#f4f9fd" opacity="0.9"/>
  <g fill="none" stroke="#1e4e79" stroke-width="12" stroke-linecap="round" stroke-linejoin="round">
    <circle cx="230" cy="280" r="70"/>
    <path d="M140 460q90-90 180 0"/>
    <circle cx="570" cy="280" r="70"/>
    <path d="M480 460q90-90 180 0"/>
    <path d="M320 480h160"/>
  </g>
  <g fill="none" stroke="#8fbfe0" stroke-width="10" stroke-linecap="round" stroke-linejoin="round">
    <path d="M350 140h140a20 20 0 0120 20v50a20 20 0 01-20 20h-60l-30 30v-30h-50a20 20 0 01-20-20v-50a20 20 0 0120-20z"/>
    <path d="M400 165c-14 0-22 10-22 20 0 16 22 30 22 30s22-14 22-30c0-10-8-20-22-20z"/>
  </g>
</svg>
