<svg xmlns="http://www.w3.org/2000/svg" viewBox="0 0 800 600" role="img" aria-label="歯磨きをする患者のイラスト">
  <defs><linearGradient id="bg" x1="0" y1="0" x2="1" y2="1"><stop offset="0" stop-color="#f4f9fd"/><stop offset="1" stop-color="#dcebf7"/></linearGradient></defs>
  <rect width="800" height="600" fill="url(#bg)"/>
  <circle cx="650" cy="120" r="110" fill="#eaf3fa" opacity="0.8"/>
  <g fill="none" stroke="#1e4e79" stroke-width="12" stroke-linecap="round" stroke-linejoin="round">
    <circle cx="360" cy="260" r="90"/>
    <path d="M240 470q120-110 240 0"/>
    <path d="M330 300q30 24 60 0" stroke="#8fbfe0"/>
    <path d="M430 290l90-60"/>
    <rect x="510" y="200" width="90" height="34" rx="17" transform="rotate(-33 555 217)"/>
    <path d="M300 245h0M420 245h0"/>
  </g>
  <path d="M640 300l10 24 24 10-24 10-10 24-10-24-24-10 24-10z" fill="#8fbfe0"/>
  <path d="M580 400l7 16 16 7-16 7-7 16-7-16-16-7 16-7z" fill="#bcd8ec"/>
</svg>
