<svg xmlns="http://www.w3.org/2000/svg" viewBox="0 0 800 600" role="img" aria-label="診療器具のイラスト">
  <defs><linearGradient id="bg" x1="0" y1="0" x2="1" y2="1"><stop offset="0" stop-color="#f4f9fd"/><stop offset="1" stop-color="#e3f0f9"/></linearGradient></defs>
  <rect width="800" height="600" fill="url(#bg)"/>
  <circle cx="680" cy="470" r="110" fill="#eaf3fa" opacity="0.8"/>
  <g fill="none" stroke="#1e4e79" stroke-width="12" stroke-linecap="round" stroke-linejoin="round">
    <rect x="200" y="360" width="400" height="90" rx="20"/>
    <path d="M280 320V180"/>
    <circle cx="280" cy="150" r="30"/>
    <path d="M400 320V170l24-24"/>
    <path d="M520 320V200c0-20 14-34 30-34" />
  </g>
  <path d="M640 180l10 22 22 10-22 10-10 22-10-22-22-10 22-10z" fill="#8fbfe0"/>
  <path d="M170 240l8 18 18 8-18 8-8 18-8-18-18-8 18-8z" fill="#bcd8ec"/>
</svg>
